<svg height="512" viewBox="0 0 512 512" width="512" xmlns="http://www.w3.org/2000/svg"><g><g fill="#57a4ff"><path d="m16 40h160v40h-160z"/><circle cx="288" cy="368" r="24"/><path d="m400 432v-132a19.994 19.994 0 0 0 -20-20h-184a19.994 19.994 0 0 0 -20 20v132h-56l3.69-16h.31a19.994 19.994 0 0 0 20-20v-8a19.96 19.96 0 0 0 -9.87-17.24l26.71-115.75a40.006 40.006 0 0 1 38.98-31.01h48.18a26.148 26.148 0 0 0 1.26 8c4.44 13.8 20.1 24 38.74 24s34.3-10.2 38.74-24a26.148 26.148 0 0 0 1.26-8h48.18a40.006 40.006 0 0 1 38.98 31.01l40.84 176.99z"/><path d="m32 464h448v24h-448z"/><circle cx="288" cy="368" r="24"/><circle cx="288" cy="368" r="24"/><path d="m368 100v20h-24v-12c0-1.33-.05-2.64-.15-3.94-40.03 15.94-111.85 15.94-111.85 15.94h-24v-20a76.082 76.082 0 0 1 76-76h8a76.082 76.082 0 0 1 76 76z"/><circle cx="312" cy="144" r="8"/><circle cx="312" cy="144" r="8"/><path d="m248 224a26.148 26.148 0 0 0 1.26 8h-1.26z"/><path d="m328 224v8h-1.26a26.148 26.148 0 0 0 1.26-8z"/></g><g fill="#004fac"><path d="m496 424h-25.24l-44.01-164.46a48.216 48.216 0 0 0 -47.79-43.54h-50.96v-4.03a60.117 60.117 0 0 0 22.79-35.97h1.21a24.032 24.032 0 0 0 24-24v-52a84.092 84.092 0 0 0 -84-84h-8a84.092 84.092 0 0 0 -84 84v52a24.032 24.032 0 0 0 24 24h1.21a60.117 60.117 0 0 0 22.79 35.97v4.03h-50.96a48.219 48.219 0 0 0 -47.79 43.5l-27.95 100.5h-21.3a28.031 28.031 0 0 0 -28 28v8a28.031 28.031 0 0 0 28 28h-84a8 8 0 0 0 -8 8v32a8 8 0 0 0 8 8h8v16a8 8 0 0 0 8 8h448a8 8 0 0 0 8-8v-16h8a8 8 0 0 0 8-8v-32a8 8 0 0 0 -8-8zm-136-272a8.011 8.011 0 0 1 -8 8v-32h8zm-136 8a8.011 8.011 0 0 1 -8-8v-24h8zm-8-48v-12a68.071 68.071 0 0 1 68-68h8a68.071 68.071 0 0 1 68 68v12h-8v-4c0-1.53-.06-3.06-.17-4.56a8 8 0 0 0 -10.94-6.81c-38.12 15.18-108.19 15.37-108.89 15.37zm24 52v-36.12c18.1-.45 62.86-2.58 96-12.63v48.75a44.052 44.052 0 0 1 -44 44h-8a44.052 44.052 0 0 1 -44-44zm72 56.56v3.44c0 8.96-3.12 24-24 24s-24-15.04-24-24v-3.44a59.723 59.723 0 0 0 20 3.44h8a59.723 59.723 0 0 0 20-3.44zm-147.13 42.51a7.911 7.911 0 0 0 .27-1.53 32.138 32.138 0 0 1 31.9-29.54h50.96c.21 0 .41-.02.61-.03 3.1 19.7 17.87 32.03 39.39 32.03s36.29-12.33 39.39-32.03c.2.01.4.03.61.03h50.96a32.138 32.138 0 0 1 31.9 29.54 8.108 8.108 0 0 0 .25 1.46l43.09 161h-46.2v-124a28.031 28.031 0 0 0 -28-28h-184a28.031 28.031 0 0 0 -28 28v124h-44a28.031 28.031 0 0 0 28-28v-8a28.026 28.026 0 0 0 -14.99-24.78zm227.13 36.93v124h-208v-124a12.01 12.01 0 0 1 12-12h184a12.01 12.01 0 0 1 12 12zm-304 96v-8a12.01 12.01 0 0 1 12-12h24a12.01 12.01 0 0 1 12 12v8a12.01 12.01 0 0 1 -12 12h-24a12.01 12.01 0 0 1 -12-12zm384 84h-432v-8h432zm16-24h-464v-16h464z"/><path d="m288 336a32 32 0 1 0 32 32 32.036 32.036 0 0 0 -32-32zm0 48a16 16 0 1 1 16-16 16.019 16.019 0 0 1 -16 16z"/><circle cx="264" cy="144" r="8"/><circle cx="312" cy="144" r="8"/><path d="m280 192h16a8 8 0 0 0 0-16h-16a8 8 0 0 0 0 16z"/><path d="m176 32h-24v-8a8 8 0 0 0 -16 0v8h-32v-8a8 8 0 0 0 -16 0v8h-32v-8a8 8 0 0 0 -16 0v8h-24a8 8 0 0 0 -8 8v144a8 8 0 0 0 8 8h160a8 8 0 0 0 8-8v-144a8 8 0 0 0 -8-8zm-8 144h-144v-88h144zm0-104h-144v-24h16v8a8 8 0 0 0 16 0v-8h32v8a8 8 0 0 0 16 0v-8h32v8a8 8 0 0 0 16 0v-8h16z"/><path d="m72 104a8 8 0 0 0 -8 8v40a8 8 0 0 0 16 0v-40a8 8 0 0 0 -8-8z"/><path d="m120 104a8 8 0 0 0 -8 8v16h-8v-16a8 8 0 0 0 -16 0v24a8 8 0 0 0 8 8h16v8a8 8 0 0 0 16 0v-40a8 8 0 0 0 -8-8z"/></g></g></svg>